<svg xmlns="http://www.w3.org/2000/svg" width="1024" height="1024" viewBox="0 0 24 24">
  <defs>
    <linearGradient id="g" x1="0%" y1="0%" x2="100%" y2="100%">
      <stop offset="0%" stop-color="#6366f1"/>
      <stop offset="100%" stop-color="#8b5cf6"/>
    </linearGradient>
  </defs>
  <circle cx="12" cy="12" r="11" fill="url(#g)"/>
  <path d="M12.983 21.186a1 1 0 0 1-1.966 0 10 10 0 0 0-8.203-8.203 1 1 0 0 1 0-1.966 10 10 0 0 0 8.203-8.203 1 1 0 0 1 1.966 0 10 10 0 0 0 8.203 8.203 1 1 0 0 1 0 1.966 10 10 0 0 0-8.203 8.203" fill="none" stroke="white" stroke-width="2" stroke-linecap="round" stroke-linejoin="round"/>
  <circle cx="12" cy="12" r="1.5" fill="white"/>
</svg>
